<svg width="62" height="45" viewBox="0 0 62 45" fill="none" xmlns="http://www.w3.org/2000/svg">
<g clip-path="url(#clip0_1976_2980)">
<path d="M32.3271 19.1524L32.2988 20.3223C32.2836 20.9663 32.0309 22.9297 31.7382 24.6856L31.206 27.8789L23.8213 27.9961C19.759 28.0608 16.2432 28.295 16.0088 28.5176C15.5838 28.9211 15.4447 29.6181 14.1699 37.669C13.7996 40.0101 13.3728 42.5487 13.2226 43.3096L12.9502 44.6934H0.948243L0.947266 43.3096C0.947316 42.5487 1.24533 40.3934 1.6084 38.5205C1.97152 36.6473 2.78164 31.9546 3.40918 28.0918C4.03631 24.2287 4.65167 20.636 4.77539 20.1094L5 19.1524H32.3271ZM61.1338 0.847656L60.8349 2.44433C60.6704 3.32268 60.329 5.18538 60.0771 6.58398C59.8256 7.98264 59.5149 9.22635 59.3867 9.34766C59.2572 9.4689 57.5053 9.58847 55.4912 9.6123C53.4762 9.63657 51.4945 9.6855 51.0888 9.72168C50.5103 9.77345 50.2364 10.5929 49.8232 13.5117C49.5332 15.5605 49.1215 18.003 48.9082 18.9395C48.6948 19.8761 48.1999 22.5575 47.8086 24.8984C47.4172 27.2397 46.8894 30.2094 46.6357 31.4971C46.382 32.7847 45.8942 35.5619 45.5517 37.669C45.2093 39.7759 44.7905 42.2187 44.6211 43.0967L44.3134 44.6934H32.2119L32.5058 42.458C32.6677 41.2289 33.1045 38.4995 33.4765 36.3926C34.8402 28.6643 35.5005 24.841 35.9052 22.3447C36.133 20.94 36.6316 18.162 37.0127 16.1719C37.3936 14.1823 37.7055 11.932 37.706 11.1709V9.78711H28.3017C18.9033 9.78711 18.8956 9.78817 18.706 10.7451C18.602 11.2719 18.3461 12.469 18.1377 13.4053L17.7588 15.1084L12.1797 15.2285C9.11314 15.2949 6.37843 15.2664 6.10058 15.166C5.74466 15.0362 5.88286 13.2747 6.57812 9.08594C7.11642 5.8431 7.7056 2.66325 7.88769 2.01855L8.21777 0.847656H61.1338Z" fill="white"/>
</g>
<defs>
<clipPath id="clip0_1976_2980">
<rect width="62" height="45" fill="white"/>
</clipPath>
</defs>
</svg>
